<svg width="68" height="68" viewBox="0 0 68 68" fill="none" xmlns="http://www.w3.org/2000/svg">
<g filter="url(#filter0_f_101_24)">
<path d="M34 13C29.8466 13 25.7865 14.2316 22.333 16.5391C18.8796 18.8466 16.188 22.1264 14.5985 25.9636C13.0091 29.8009 12.5932 34.0233 13.4035 38.0969C14.2138 42.1705 16.2139 45.9123 19.1508 48.8492C22.0877 51.7861 25.8295 53.7862 29.9031 54.5965C33.9767 55.4068 38.1991 54.9909 42.0364 53.4015C45.8736 51.812 49.1534 49.1204 51.4609 45.667C53.7684 42.2135 55 38.1534 55 34C55 31.2422 54.4568 28.5115 53.4015 25.9636C52.3461 23.4158 50.7993 21.1008 48.8493 19.1508C46.8992 17.2007 44.5842 15.6539 42.0364 14.5985C39.4885 13.5432 36.7578 13 34 13V13ZM34 48C31.2311 48 28.5243 47.1789 26.222 45.6406C23.9197 44.1022 22.1253 41.9157 21.0657 39.3576C20.0061 36.7994 19.7288 33.9845 20.269 31.2687C20.8092 28.553 22.1426 26.0584 24.1005 24.1005C26.0585 22.1426 28.553 20.8092 31.2687 20.269C33.9845 19.7288 36.7994 20.0061 39.3576 21.0657C41.9157 22.1253 44.1022 23.9197 45.6406 26.222C47.1789 28.5243 48 31.2311 48 34C48 37.713 46.525 41.274 43.8995 43.8995C41.274 46.525 37.713 48 34 48V48Z" fill="white"/>
<path d="M34 27C35.3845 27 36.7378 27.4105 37.889 28.1797C39.0401 28.9489 39.9373 30.0421 40.4672 31.3212C40.997 32.6003 41.1356 34.0078 40.8655 35.3656C40.5954 36.7235 39.9287 37.9708 38.9497 38.9497C37.9708 39.9287 36.7235 40.5954 35.3656 40.8655C34.0078 41.1356 32.6003 40.997 31.3212 40.4672C30.0421 39.9373 28.9489 39.0401 28.1797 37.889C27.4105 36.7378 27 35.3845 27 34C27 32.1435 27.7375 30.363 29.0503 29.0503C30.363 27.7375 32.1435 27 34 27V27Z" fill="white"/>
<path d="M34 13C29.8466 13 25.7865 14.2316 22.333 16.5391C18.8796 18.8466 16.188 22.1264 14.5985 25.9636C13.0091 29.8009 12.5932 34.0233 13.4035 38.0969C14.2138 42.1705 16.2139 45.9123 19.1508 48.8492C22.0877 51.7861 25.8295 53.7862 29.9031 54.5965C33.9767 55.4068 38.1991 54.9909 42.0364 53.4015C45.8736 51.812 49.1534 49.1204 51.4609 45.667C53.7684 42.2135 55 38.1534 55 34C55 31.2422 54.4568 28.5115 53.4015 25.9636C52.3461 23.4158 50.7993 21.1008 48.8493 19.1508C46.8992 17.2007 44.5842 15.6539 42.0364 14.5985C39.4885 13.5432 36.7578 13 34 13V13Z" stroke="white" stroke-width="2" stroke-miterlimit="10"/>
</g>
<path d="M34 13C29.8466 13 25.7865 14.2316 22.333 16.5391C18.8796 18.8466 16.188 22.1264 14.5985 25.9636C13.0091 29.8009 12.5932 34.0233 13.4035 38.0969C14.2138 42.1705 16.2139 45.9123 19.1508 48.8492C22.0877 51.7861 25.8295 53.7862 29.9031 54.5965C33.9767 55.4068 38.1991 54.9909 42.0364 53.4015C45.8736 51.812 49.1534 49.1204 51.4609 45.667C53.7684 42.2135 55 38.1534 55 34C55 31.2422 54.4568 28.5115 53.4015 25.9636C52.3461 23.4158 50.7993 21.1008 48.8493 19.1508C46.8992 17.2007 44.5842 15.6539 42.0364 14.5985C39.4885 13.5432 36.7578 13 34 13V13ZM34 48C31.2311 48 28.5243 47.1789 26.222 45.6406C23.9197 44.1022 22.1253 41.9157 21.0657 39.3576C20.0061 36.7994 19.7288 33.9845 20.269 31.2687C20.8092 28.553 22.1426 26.0584 24.1005 24.1005C26.0585 22.1426 28.553 20.8092 31.2687 20.269C33.9845 19.7288 36.7994 20.0061 39.3576 21.0657C41.9157 22.1253 44.1022 23.9197 45.6406 26.222C47.1789 28.5243 48 31.2311 48 34C48 37.713 46.525 41.274 43.8995 43.8995C41.274 46.525 37.713 48 34 48V48Z" fill="#0097D1"/>
<path d="M34 27C35.3845 27 36.7378 27.4105 37.889 28.1797C39.0401 28.9489 39.9373 30.0421 40.4672 31.3212C40.997 32.6003 41.1356 34.0078 40.8655 35.3656C40.5954 36.7235 39.9287 37.9708 38.9497 38.9497C37.9708 39.9287 36.7235 40.5954 35.3656 40.8655C34.0078 41.1356 32.6003 40.997 31.3212 40.4672C30.0421 39.9373 28.9489 39.0401 28.1797 37.889C27.4105 36.7378 27 35.3845 27 34C27 32.1435 27.7375 30.363 29.0503 29.0503C30.363 27.7375 32.1435 27 34 27V27Z" fill="#0097D1"/>
<path d="M34 13C29.8466 13 25.7865 14.2316 22.333 16.5391C18.8796 18.8466 16.188 22.1264 14.5985 25.9636C13.0091 29.8009 12.5932 34.0233 13.4035 38.0969C14.2138 42.1705 16.2139 45.9123 19.1508 48.8492C22.0877 51.7861 25.8295 53.7862 29.9031 54.5965C33.9767 55.4068 38.1991 54.9909 42.0364 53.4015C45.8736 51.812 49.1534 49.1204 51.4609 45.667C53.7684 42.2135 55 38.1534 55 34C55 31.2422 54.4568 28.5115 53.4015 25.9636C52.3461 23.4158 50.7993 21.1008 48.8493 19.1508C46.8992 17.2007 44.5842 15.6539 42.0364 14.5985C39.4885 13.5432 36.7578 13 34 13V13Z" stroke="white" stroke-width="2" stroke-miterlimit="10"/>
<defs>
<filter id="filter0_f_101_24" x="0" y="0" width="68" height="68" filterUnits="userSpaceOnUse" color-interpolation-filters="sRGB">
<feFlood flood-opacity="0" result="BackgroundImageFix"/>
<feBlend mode="normal" in="SourceGraphic" in2="BackgroundImageFix" result="shape"/>
<feGaussianBlur stdDeviation="6" result="effect1_foregroundBlur_101_24"/>
</filter>
</defs>
</svg>
