<svg width="75" height="75" viewBox="0 0 75 75" fill="none" xmlns="http://www.w3.org/2000/svg">
<g filter="url(#filter0_f_101_50)">
<path d="M62.286 37.143C62.286 32.1702 60.8114 27.3091 58.0486 23.1743C55.2859 19.0396 51.3591 15.8169 46.7648 13.9139C42.1705 12.0109 37.1151 11.513 32.2379 12.4831C27.3606 13.4533 22.8805 15.8479 19.3642 19.3642C15.8479 22.8805 13.4533 27.3606 12.4831 32.2379C11.513 37.1151 12.0109 42.1705 13.9139 46.7648C15.8169 51.3591 19.0396 55.2859 23.1743 58.0486C27.3091 60.8114 32.1702 62.286 37.143 62.286C40.4448 62.286 43.7143 61.6357 46.7648 60.3721C49.8153 59.1086 52.5871 57.2565 54.9218 54.9218C57.2565 52.5871 59.1086 49.8153 60.3721 46.7648C61.6357 43.7143 62.286 40.4448 62.286 37.143" fill="white"/>
<path d="M45.635 44.904C44.583 45.104 43.707 45.346 42.816 45.423C37.916 45.847 33.97 43.863 30.633 40.453C28.1093 38.0282 26.5012 34.8056 26.081 31.331C25.894 29.7266 26.0262 28.1011 26.47 26.548C26.637 25.972 26.764 25.938 27.183 26.354C28.269 27.43 29.335 28.528 30.44 29.585C30.6706 29.7968 30.9674 29.9222 31.28 29.94C34.0134 29.966 36.7467 29.966 39.48 29.94C39.7253 29.919 39.9543 29.8083 40.123 29.629C40.2304 29.4857 40.3673 29.3671 40.5245 29.2813C40.6817 29.1955 40.8555 29.1444 41.0341 29.1316C41.2128 29.1188 41.3921 29.1446 41.5599 29.2071C41.7277 29.2696 41.8801 29.3675 42.0068 29.4941C42.1335 29.6206 42.2316 29.7729 42.2943 29.9407C42.357 30.1084 42.3829 30.2877 42.3704 30.4663C42.3578 30.645 42.3069 30.8188 42.2213 30.9761C42.1357 31.1334 42.0172 31.2705 41.874 31.378C41.6957 31.5452 41.5865 31.7732 41.568 32.017C41.5474 34.7703 41.5474 37.523 41.568 40.275C41.5895 40.5665 41.7114 40.8414 41.913 41.053C42.944 42.126 44.013 43.167 45.058 44.223C45.21 44.377 45.339 44.552 45.635 44.902V44.904ZM35.761 34.775L39.761 30.818H31.811L35.756 34.775H35.761ZM36.688 35.545L40.654 39.545V31.556L36.688 35.545V35.545ZM29.311 43.132C28.645 45.059 27.98 47.002 27.291 48.932C27.2504 49.0128 27.1906 49.0824 27.1169 49.1347C27.0431 49.187 26.9577 49.2204 26.868 49.232C26.142 49.153 25.849 49.554 25.659 50.166C25.479 50.748 25.237 51.311 25.032 51.886C24.968 52.067 24.937 52.259 24.887 52.465C25.0036 52.5079 25.1242 52.5388 25.247 52.557C28.629 52.5617 32.011 52.564 35.393 52.564C35.804 52.564 35.885 52.373 35.75 52.018C35.468 51.276 35.1904 50.5327 34.917 49.788C34.8688 49.6079 34.7541 49.4527 34.596 49.3538C34.4379 49.2549 34.2481 49.2196 34.065 49.255C33.632 49.313 33.472 49.113 33.343 48.725C32.798 47.084 32.217 45.454 31.652 43.82C31.588 43.634 31.542 43.443 31.493 43.273C31.6621 43.1618 31.8192 43.0334 31.962 42.89L28.581 39.481C27.681 40.374 27.888 41.781 29.313 43.132H29.311ZM46.903 30.29C46.9014 28.8294 46.3205 27.4291 45.2877 26.3963C44.2549 25.3635 42.8546 24.7826 41.394 24.781C41.2853 24.7863 41.1827 24.8332 41.1076 24.9121C41.0325 24.9909 40.9906 25.0956 40.9906 25.2045C40.9906 25.3134 41.0325 25.4181 41.1076 25.497C41.1827 25.5758 41.2853 25.6227 41.394 25.628C42.6301 25.6293 43.8151 26.1209 44.6891 26.9949C45.5631 27.8689 46.0547 29.054 46.056 30.29C46.0613 30.3988 46.1082 30.5013 46.1871 30.5764C46.2659 30.6515 46.3706 30.6934 46.4795 30.6934C46.5884 30.6934 46.6931 30.6515 46.772 30.5764C46.8508 30.5013 46.8977 30.3988 46.903 30.29V30.29ZM49.729 30.29C49.7266 28.0802 48.8477 25.9615 47.2851 24.3989C45.7225 22.8363 43.6039 21.9574 41.394 21.955C41.2818 21.955 41.1742 21.9996 41.0949 22.0789C41.0156 22.1582 40.971 22.2658 40.971 22.378C40.971 22.4902 41.0156 22.5978 41.0949 22.6771C41.1742 22.7564 41.2818 22.801 41.394 22.801C43.3792 22.8042 45.2821 23.5943 46.6857 24.9981C48.0893 26.4019 48.8791 28.3049 48.882 30.29C48.8873 30.3988 48.9342 30.5013 49.0131 30.5764C49.0919 30.6515 49.1966 30.6934 49.3055 30.6934C49.4144 30.6934 49.5191 30.6515 49.598 30.5764C49.6768 30.5013 49.7237 30.3988 49.729 30.29V30.29ZM52.484 30.29C52.4814 27.3496 51.3121 24.5303 49.2329 22.4511C47.1537 20.3719 44.3345 19.2027 41.394 19.2C41.2818 19.2 41.1742 19.2446 41.0949 19.3239C41.0156 19.4032 40.971 19.5108 40.971 19.623C40.971 19.7352 41.0156 19.8428 41.0949 19.9221C41.1742 20.0014 41.2818 20.046 41.394 20.046C44.1098 20.0492 46.7135 21.1295 48.6338 23.05C50.554 24.9704 51.6341 27.5742 51.637 30.29C51.6423 30.3988 51.6892 30.5013 51.7681 30.5764C51.8469 30.6515 51.9516 30.6934 52.0605 30.6934C52.1694 30.6934 52.2741 30.6515 52.353 30.5764C52.4318 30.5013 52.4787 30.3988 52.484 30.29" fill="white"/>
</g>
<path d="M62.286 37.143C62.286 32.1702 60.8114 27.3091 58.0486 23.1743C55.2859 19.0396 51.3591 15.8169 46.7648 13.9139C42.1705 12.0109 37.1151 11.513 32.2379 12.4831C27.3606 13.4533 22.8805 15.8479 19.3642 19.3642C15.8479 22.8805 13.4533 27.3606 12.4831 32.2379C11.513 37.1151 12.0109 42.1705 13.9139 46.7648C15.8169 51.3591 19.0396 55.2859 23.1743 58.0486C27.3091 60.8114 32.1702 62.286 37.143 62.286C40.4448 62.286 43.7143 61.6357 46.7648 60.3721C49.8153 59.1086 52.5871 57.2565 54.9218 54.9218C57.2565 52.5871 59.1086 49.8153 60.3721 46.7648C61.6357 43.7143 62.286 40.4448 62.286 37.143" fill="#038FD6"/>
<path d="M45.635 44.904C44.583 45.104 43.707 45.346 42.816 45.423C37.916 45.847 33.97 43.863 30.633 40.453C28.1093 38.0282 26.5012 34.8056 26.081 31.331C25.894 29.7266 26.0262 28.1011 26.47 26.548C26.637 25.972 26.764 25.938 27.183 26.354C28.269 27.43 29.335 28.528 30.44 29.585C30.6706 29.7968 30.9674 29.9222 31.28 29.94C34.0134 29.966 36.7467 29.966 39.48 29.94C39.7253 29.919 39.9543 29.8083 40.123 29.629C40.2304 29.4857 40.3673 29.3671 40.5245 29.2813C40.6817 29.1955 40.8555 29.1444 41.0341 29.1316C41.2128 29.1188 41.3921 29.1446 41.5599 29.2071C41.7277 29.2696 41.8801 29.3675 42.0068 29.4941C42.1335 29.6206 42.2316 29.7729 42.2943 29.9407C42.357 30.1084 42.3829 30.2877 42.3704 30.4663C42.3578 30.645 42.3069 30.8188 42.2213 30.9761C42.1357 31.1334 42.0172 31.2705 41.874 31.378C41.6957 31.5452 41.5865 31.7732 41.568 32.017C41.5474 34.7703 41.5474 37.523 41.568 40.275C41.5895 40.5665 41.7114 40.8414 41.913 41.053C42.944 42.126 44.013 43.167 45.058 44.223C45.21 44.377 45.339 44.552 45.635 44.902V44.904ZM35.761 34.775L39.761 30.818H31.811L35.756 34.775H35.761ZM36.688 35.545L40.654 39.545V31.556L36.688 35.545V35.545ZM29.311 43.132C28.645 45.059 27.98 47.002 27.291 48.932C27.2504 49.0128 27.1906 49.0824 27.1169 49.1347C27.0431 49.187 26.9577 49.2204 26.868 49.232C26.142 49.153 25.849 49.554 25.659 50.166C25.479 50.748 25.237 51.311 25.032 51.886C24.968 52.067 24.937 52.259 24.887 52.465C25.0036 52.5079 25.1242 52.5388 25.247 52.557C28.629 52.5617 32.011 52.564 35.393 52.564C35.804 52.564 35.885 52.373 35.75 52.018C35.468 51.276 35.1904 50.5327 34.917 49.788C34.8688 49.6079 34.7541 49.4527 34.596 49.3538C34.4379 49.2549 34.2481 49.2196 34.065 49.255C33.632 49.313 33.472 49.113 33.343 48.725C32.798 47.084 32.217 45.454 31.652 43.82C31.588 43.634 31.542 43.443 31.493 43.273C31.6621 43.1618 31.8192 43.0334 31.962 42.89L28.581 39.481C27.681 40.374 27.888 41.781 29.313 43.132H29.311ZM46.903 30.29C46.9014 28.8294 46.3205 27.4291 45.2877 26.3963C44.2549 25.3635 42.8546 24.7826 41.394 24.781C41.2853 24.7863 41.1827 24.8332 41.1076 24.9121C41.0325 24.9909 40.9906 25.0956 40.9906 25.2045C40.9906 25.3134 41.0325 25.4181 41.1076 25.497C41.1827 25.5758 41.2853 25.6227 41.394 25.628C42.6301 25.6293 43.8151 26.1209 44.6891 26.9949C45.5631 27.8689 46.0547 29.054 46.056 30.29C46.0613 30.3988 46.1082 30.5013 46.1871 30.5764C46.2659 30.6515 46.3706 30.6934 46.4795 30.6934C46.5884 30.6934 46.6931 30.6515 46.772 30.5764C46.8508 30.5013 46.8977 30.3988 46.903 30.29V30.29ZM49.729 30.29C49.7266 28.0802 48.8477 25.9615 47.2851 24.3989C45.7225 22.8363 43.6039 21.9574 41.394 21.955C41.2818 21.955 41.1742 21.9996 41.0949 22.0789C41.0156 22.1582 40.971 22.2658 40.971 22.378C40.971 22.4902 41.0156 22.5978 41.0949 22.6771C41.1742 22.7564 41.2818 22.801 41.394 22.801C43.3792 22.8042 45.2821 23.5943 46.6857 24.9981C48.0893 26.4019 48.8791 28.3049 48.882 30.29C48.8873 30.3988 48.9342 30.5013 49.0131 30.5764C49.0919 30.6515 49.1966 30.6934 49.3055 30.6934C49.4144 30.6934 49.5191 30.6515 49.598 30.5764C49.6768 30.5013 49.7237 30.3988 49.729 30.29V30.29ZM52.484 30.29C52.4814 27.3496 51.3121 24.5303 49.2329 22.4511C47.1537 20.3719 44.3345 19.2027 41.394 19.2C41.2818 19.2 41.1742 19.2446 41.0949 19.3239C41.0156 19.4032 40.971 19.5108 40.971 19.623C40.971 19.7352 41.0156 19.8428 41.0949 19.9221C41.1742 20.0014 41.2818 20.046 41.394 20.046C44.1098 20.0492 46.7135 21.1295 48.6338 23.05C50.554 24.9704 51.6341 27.5742 51.637 30.29C51.6423 30.3988 51.6892 30.5013 51.7681 30.5764C51.8469 30.6515 51.9516 30.6934 52.0605 30.6934C52.1694 30.6934 52.2741 30.6515 52.353 30.5764C52.4318 30.5013 52.4787 30.3988 52.484 30.29" fill="white"/>
<defs>
<filter id="filter0_f_101_50" x="0" y="0" width="74.286" height="74.286" filterUnits="userSpaceOnUse" color-interpolation-filters="sRGB">
<feFlood flood-opacity="0" result="BackgroundImageFix"/>
<feBlend mode="normal" in="SourceGraphic" in2="BackgroundImageFix" result="shape"/>
<feGaussianBlur stdDeviation="6" result="effect1_foregroundBlur_101_50"/>
</filter>
</defs>
</svg>
