<svg width="50" height="50" viewBox="0 0 50 50" fill="none" xmlns="http://www.w3.org/2000/svg">
<path d="M50 25C50 20.0555 48.5338 15.222 45.7867 11.1107C43.0397 6.99956 39.1352 3.79519 34.5671 1.90301C29.9989 0.0108359 24.9723 -0.484233 20.1228 0.48035C15.2732 1.44503 10.8186 3.82601 7.32232 7.32232C3.82601 10.8186 1.44503 15.2732 0.48035 20.1228C-0.484233 24.9723 0.0108359 29.9989 1.90301 34.5671C3.79519 39.1352 6.99956 43.0397 11.1107 45.7867C15.222 48.5338 20.0555 50 25 50C28.283 50 31.5339 49.3534 34.5671 48.097C37.6002 46.8407 40.3563 44.9991 42.6777 42.6777C44.9991 40.3563 46.8407 37.6002 48.097 34.5671C49.3534 31.5339 50 28.283 50 25Z" fill="#038FD6"/>
<path d="M33.4437 32.7169C32.3977 32.9157 31.5267 33.1564 30.6408 33.2329C25.7686 33.6545 21.8451 31.6818 18.527 28.2912C16.0177 25.8802 14.4187 22.6759 14.0009 19.2211C13.815 17.6258 13.9464 16.0095 14.3877 14.4653C14.5538 13.8925 14.68 13.8587 15.0967 14.2724C16.1765 15.3422 17.2364 16.434 18.3351 17.485C18.5644 17.6956 18.8595 17.8203 19.1704 17.838C21.8882 17.8638 24.606 17.8638 27.3237 17.838C27.5676 17.8171 27.7953 17.707 27.9631 17.5287C28.0699 17.3863 28.206 17.2683 28.3623 17.183C28.5186 17.0977 28.6914 17.0469 28.869 17.0342C29.0467 17.0214 29.2249 17.0471 29.3918 17.1092C29.5586 17.1714 29.7102 17.2687 29.8362 17.3946C29.9621 17.5204 30.0597 17.6718 30.122 17.8387C30.1844 18.0054 30.2101 18.1837 30.1977 18.3613C30.1852 18.539 30.1345 18.7118 30.0494 18.8682C29.9643 19.0246 29.8465 19.1609 29.7041 19.2678C29.5268 19.434 29.4182 19.6607 29.3999 19.9032C29.3794 22.6408 29.3794 25.3778 29.3999 28.1142C29.4212 28.404 29.5424 28.6774 29.7429 28.8878C30.768 29.9547 31.8309 30.9897 32.87 32.0397C33.0211 32.1929 33.1494 32.3669 33.4437 32.7149V32.7169ZM23.6259 22.6455L27.6031 18.711H19.6983L23.6209 22.6455H23.6259ZM24.5476 23.4111L28.491 27.3883V19.4448L24.5476 23.4111ZM17.2126 30.9549C16.5503 32.871 15.8891 34.8029 15.204 36.722C15.1637 36.8023 15.1042 36.8715 15.0309 36.9235C14.9576 36.9755 14.8726 37.0087 14.7835 37.0203C14.0616 36.9417 13.7703 37.3404 13.5813 37.9489C13.4024 38.5276 13.1617 39.0874 12.9579 39.6592C12.8943 39.8391 12.8634 40.03 12.8137 40.2349C12.9297 40.2775 13.0496 40.3082 13.1717 40.3263C16.5344 40.331 19.8972 40.3333 23.26 40.3333C23.6686 40.3333 23.7492 40.1434 23.6149 39.7904C23.3345 39.0526 23.0585 38.3136 22.7867 37.5731C22.7388 37.394 22.6247 37.2397 22.4675 37.1414C22.3103 37.043 22.1216 37.0079 21.9395 37.0431C21.509 37.1008 21.3499 36.9019 21.2216 36.5161C20.6797 34.8845 20.102 33.2637 19.5402 31.639C19.4766 31.4541 19.4309 31.2642 19.3822 31.0951C19.5503 30.9846 19.7065 30.8569 19.8485 30.7143L16.4867 27.3247C15.5918 28.2126 15.7977 29.6116 17.2145 30.9549H17.2126ZM34.7045 18.186C34.7029 16.7337 34.1253 15.3414 33.0984 14.3144C32.0715 13.2875 30.6791 12.7099 29.2268 12.7083C29.1188 12.7136 29.0167 12.7602 28.9421 12.8387C28.8674 12.917 28.8257 13.0211 28.8257 13.1294C28.8257 13.2377 28.8674 13.3418 28.9421 13.4202C29.0167 13.4986 29.1188 13.5452 29.2268 13.5505C30.4559 13.5518 31.6342 14.0406 32.5032 14.9096C33.3722 15.7787 33.861 16.957 33.8623 18.186C33.8676 18.2942 33.9142 18.3961 33.9927 18.4708C34.071 18.5454 34.1751 18.5871 34.2834 18.5871C34.3917 18.5871 34.4958 18.5454 34.5743 18.4708C34.6526 18.3961 34.6992 18.2942 34.7045 18.186ZM37.5144 18.186C37.5121 15.9888 36.6381 13.8821 35.0844 12.3284C33.5307 10.7747 31.4242 9.90077 29.2268 9.89839C29.1153 9.89839 29.0083 9.94273 28.9294 10.0216C28.8506 10.1004 28.8062 10.2074 28.8062 10.319C28.8062 10.4305 28.8506 10.5375 28.9294 10.6164C29.0083 10.6952 29.1153 10.7396 29.2268 10.7396C31.2008 10.7428 33.0928 11.5284 34.4884 12.9242C35.8841 14.32 36.6694 16.2122 36.6723 18.186C36.6775 18.2942 36.7242 18.3961 36.8026 18.4708C36.881 18.5454 36.9851 18.5871 37.0933 18.5871C37.2016 18.5871 37.3057 18.5454 37.3842 18.4708C37.4625 18.3961 37.5092 18.2942 37.5144 18.186ZM40.2538 18.186C40.2512 15.2623 39.0885 12.459 37.0212 10.3917C34.9538 8.32429 32.1506 7.16174 29.2268 7.15906C29.1153 7.15906 29.0083 7.2034 28.9294 7.28225C28.8506 7.3611 28.8062 7.46809 28.8062 7.57965C28.8062 7.69121 28.8506 7.7982 28.9294 7.87705C29.0083 7.9559 29.1153 8.00024 29.2268 8.00024C31.9272 8.00343 34.5161 9.07758 36.4255 10.9872C38.3347 12.8966 39.4087 15.4856 39.4116 18.186C39.4169 18.2942 39.4635 18.3961 39.5419 18.4708C39.6203 18.5454 39.7244 18.5871 39.8327 18.5871C39.941 18.5871 40.0451 18.5454 40.1235 18.4708C40.2019 18.3961 40.2485 18.2942 40.2538 18.186Z" fill="white"/>
</svg>
